HIERARCHY
ROOT Hips
{
	OFFSET 0.000000 0.000000 0.000000
	CHANNELS 6 Xposition Yposition Zposition Xrotation Yrotation Zrotation
	JOINT LeftUpLeg_virtual
	{
		OFFSET 0.000000 0.000000 0.000000
		CHANNELS 3 Xrotation Yrotation Zrotation
		JOINT LeftUpLeg
		{
			OFFSET 15.427100 -6.655098 0.678600
			CHANNELS 3 Xrotation Yrotation Zrotation
			JOINT LeftLeg
			{
				OFFSET 4.081073 -39.591068 13.024000
				CHANNELS 3 Xrotation Yrotation Zrotation
				JOINT LeftFoot
				{
					OFFSET -4.081074 -37.707932 -15.979700
					CHANNELS 3 Xrotation Yrotation Zrotation
					JOINT LeftToeBase
					{
						OFFSET 5.346399 -15.068900 20.645000
						CHANNELS 3 Xrotation Yrotation Zrotation
						JOINT LeftToe_End
						{
							OFFSET 2.754700 0.931300 11.300900
							CHANNELS 3 Xrotation Yrotation Zrotation
							End Site
							{
								OFFSET 0 0 0
							}
						}
					}
				}
			}
		}
	}
	JOINT RightUpLeg_virtual
	{
		OFFSET 0.000000 0.000000 0.000000
		CHANNELS 3 Xrotation Yrotation Zrotation
		JOINT RightUpLeg
		{
			OFFSET -15.569500 -6.655098 0.678600
			CHANNELS 3 Xrotation Yrotation Zrotation
			JOINT RightLeg
			{
				OFFSET -4.081825 -39.591045 13.023800
				CHANNELS 3 Xrotation Yrotation Zrotation
				JOINT RightFoot
				{
					OFFSET 4.081824 -37.707954 -15.979600
					CHANNELS 3 Xrotation Yrotation Zrotation
					JOINT RightToeBase
					{
						OFFSET -5.346400 -15.068900 20.645000
						CHANNELS 3 Xrotation Yrotation Zrotation
						JOINT RightToe_End
						{
							OFFSET -2.754700 0.931300 11.300900
							CHANNELS 3 Xrotation Yrotation Zrotation
							End Site
							{
								OFFSET 0 0 0
							}
						}
					}
				}
			}
		}
	}
	JOINT Spine_virtual
	{
		OFFSET 0.000000 0.000000 0.000000
		CHANNELS 3 Xrotation Yrotation Zrotation
		JOINT Spine
		{
			OFFSET -0.279200 12.230698 -2.892100
			CHANNELS 3 Xrotation Yrotation Zrotation
			JOINT Spine1
			{
				OFFSET -0.232667 10.192268 -1.242267
				CHANNELS 3 Xrotation Yrotation Zrotation
				JOINT Spine1_split
				{
					OFFSET -0.232667 10.192268 -1.242267
					CHANNELS 3 Xrotation Yrotation Zrotation
					JOINT Spine2
					{
						OFFSET -0.232667 10.192268 -1.242267
						CHANNELS 3 Xrotation Yrotation Zrotation
						JOINT Neck_virtual
						{
							OFFSET 0.000000 0.000000 0.000000
							CHANNELS 3 Xrotation Yrotation Zrotation
							JOINT Neck
							{
								OFFSET -0.418800 17.814194 8.416900
								CHANNELS 3 Xrotation Yrotation Zrotation
								JOINT Head
								{
									OFFSET 0.000000 7.031097 3.806800
									CHANNELS 3 Xrotation Yrotation Zrotation
									JOINT HeadTop_End
									{
										OFFSET 0.000000 24.646606 12.978600
										CHANNELS 3 Xrotation Yrotation Zrotation
										End Site
										{
											OFFSET 0 0 0
										}
									}
								}
							}
						}
						JOINT LeftShoulder_virtual
						{
							OFFSET 0.000000 0.000000 0.000000
							CHANNELS 3 Xrotation Yrotation Zrotation
							JOINT LeftShoulder
							{
								OFFSET 8.476499 7.247704 -3.868750
								CHANNELS 3 Xrotation Yrotation Zrotation
								JOINT LeftShoulder_split
								{
									OFFSET 8.476499 7.247704 -3.868750
									CHANNELS 3 Xrotation Yrotation Zrotation
									JOINT LeftArm
									{
										OFFSET 9.308998 -2.777710 0.208600
										CHANNELS 3 Xrotation Yrotation Zrotation
										JOINT LeftForeArm
										{
											OFFSET 29.972298 0.000000 0.000000
											CHANNELS 3 Xrotation Yrotation Zrotation
											JOINT LeftHand
											{
												OFFSET 26.026505 0.000000 0.000000
												CHANNELS 3 Xrotation Yrotation Zrotation
												End Site
												{
													OFFSET 0 0 0
												}
											}
										}
									}
								}
							}
						}
						JOINT RightShoulder_virtual
						{
							OFFSET 0.000000 0.000000 0.000000
							CHANNELS 3 Xrotation Yrotation Zrotation
							JOINT RightShoulder
							{
								OFFSET -7.570500 7.247704 -3.868750
								CHANNELS 3 Xrotation Yrotation Zrotation
								JOINT RightShoulder_split
								{
									OFFSET -7.570500 7.247704 -3.868750
									CHANNELS 3 Xrotation Yrotation Zrotation
									JOINT RightArm
									{
										OFFSET -9.308998 -2.777710 0.208500
										CHANNELS 3 Xrotation Yrotation Zrotation
										JOINT RightForeArm
										{
											OFFSET -29.972300 0.000000 0.000000
											CHANNELS 3 Xrotation Yrotation Zrotation
											JOINT RightHand
											{
												OFFSET -26.026505 0.000000 0.000000
												CHANNELS 3 Xrotation Yrotation Zrotation
												End Site
												{
													OFFSET 0 0 0
												}
											}
										}
									}
								}
							}
						}
					}
				}
			}
		}
	}
}
MOTION
Frames: 9
Frame Time: 0.03333333
-2.506250 92.363655 -1.132362 0.000000 0.000000 0.000000 -6.171280 -16.651945 -0.878277 3.859889 22.122126 6.111732 9.834289 5.045101 -0.094339 -13.722163 -0.663538 -3.943420 2.425103 0.447496 -1.423479 0.000000 0.000000 0.000000 -6.096123 -14.216684 -0.645791 -8.610219 -7.166769 -13.550557 17.330804 -9.888590 0.310329 0.855651 -3.632202 6.711203 -3.228221 0.273990 0.747887 0.000000 0.000000 0.000000 -5.990361 -17.151910 -1.230886 10.028092 2.442214 -0.074041 -4.509968 1.402348 -1.030514 0.921774 0.417976 0.212185 0.000000 0.000000 0.000000 -5.658148 3.779027 -1.300180 5.138024 3.491899 1.392947 1.378351 -6.621199 4.770582 0.000000 0.000000 0.000000 -6.204279 3.854624 -1.594008 2.360770 -12.513236 -2.586480 -2.360430 -2.348877 -0.089147 15.138602 6.277799 -75.016644 3.569885 -9.855137 0.867477 0.000000 0.000000 0.000000 -5.032075 3.888115 -1.541346 1.125087 3.011931 4.528873 -2.907303 -0.897604 -1.461705 0.470078 7.326303 80.060513 2.342006 19.873470 1.703244 0.000000 0.000000 0.000000 
-2.420846 92.301353 -1.164726 0.000000 0.000000 0.000000 -6.230715 -17.065303 -0.841607 3.502036 21.965641 6.184417 10.485361 5.037601 0.007487 -13.835697 -0.688444 -4.014124 2.496092 0.430241 -1.487875 0.000000 0.000000 0.000000 -6.130878 -14.570383 -0.628621 -8.678684 -7.311224 -13.435128 17.144661 -9.967590 0.169931 1.071726 -3.701898 6.878805 -3.627272 0.289926 0.762170 0.000000 0.000000 0.000000 -6.105932 -17.256451 -1.240482 9.946836 2.412260 -0.074999 -4.551734 1.384100 -1.072781 0.801342 0.512517 0.181422 0.000000 0.000000 0.000000 -5.796161 3.762909 -1.335824 5.187559 3.494054 1.447925 1.402826 -6.643312 4.764677 0.000000 0.000000 0.000000 -6.220172 3.843263 -1.646658 2.340294 -12.445053 -2.720916 -2.340629 -2.257169 -0.052238 15.102646 6.693917 -74.737562 3.387142 -9.765117 0.681646 0.000000 0.000000 0.000000 -5.027264 3.889481 -1.600483 1.088517 3.109847 4.693255 -2.799575 -0.859508 -1.437328 0.543928 7.387913 80.198961 2.413110 20.458087 1.708178 0.000000 0.000000 0.000000 
-2.299564 92.149315 -1.278091 0.000000 0.000000 0.000000 -6.182724 -17.418265 -0.879331 2.570413 21.676374 6.621927 12.053767 4.839145 0.144066 -14.062335 -0.977859 -3.972794 2.434150 0.401307 -1.588940 0.000000 0.000000 0.000000 -6.213292 -14.786929 -0.712920 -8.695859 -7.880801 -13.239259 17.061210 -9.889550 0.060236 0.674632 -3.671654 7.176018 -3.375123 0.359195 0.793601 0.000000 0.000000 0.000000 -6.098833 -17.397515 -1.294955 9.841002 2.362142 -0.028491 -4.588409 1.355893 -1.136385 0.762969 0.521881 0.162680 0.000000 0.000000 0.000000 -5.936022 3.737123 -1.399741 5.244142 3.494385 1.421489 1.382700 -6.740242 4.931556 0.000000 0.000000 0.000000 -6.220652 3.816502 -1.704654 2.288950 -12.340683 -2.942664 -2.331604 -2.292215 -0.071124 15.117335 7.083818 -74.079706 3.440648 -9.558437 0.562778 0.000000 0.000000 0.000000 -5.016030 3.876902 -1.665930 1.024893 3.132014 4.987835 -2.838381 -0.891250 -1.454548 0.616212 7.992555 80.043929 2.667032 21.066933 1.767261 0.000000 0.000000 0.000000 
-2.132676 91.925850 -1.525604 0.000000 0.000000 0.000000 -6.053621 -17.594461 -0.943275 1.233178 21.389550 7.255840 14.153959 4.557548 0.260825 -14.373397 -1.477481 -3.740443 2.280676 0.355171 -1.641535 0.000000 0.000000 0.000000 -6.326613 -14.790245 -0.846331 -8.740227 -8.742102 -13.067053 17.007716 -9.633861 -0.016397 -0.154997 -3.548196 7.585985 -2.503176 0.475925 0.846932 0.000000 0.000000 0.000000 -5.962113 -17.547178 -1.376501 9.750558 2.299173 0.034404 -4.607130 1.333034 -1.206722 0.818759 0.545985 0.165800 0.000000 0.000000 0.000000 -6.068888 3.711540 -1.473312 5.299371 3.478280 1.334166 1.339255 -6.896099 5.242466 0.000000 0.000000 0.000000 -6.202205 3.784370 -1.755922 2.212369 -12.189137 -3.232165 -2.235815 -2.459794 -0.106300 15.047412 7.289603 -73.203495 3.688761 -9.269825 0.471603 0.000000 0.000000 0.000000 -4.993961 3.861146 -1.723729 0.946888 3.071795 5.382360 -2.981841 -0.913569 -1.503057 0.706160 8.943704 79.576253 3.089081 21.599203 1.891726 0.000000 0.000000 0.000000 
-1.904288 91.674728 -1.903786 0.000000 0.000000 0.000000 -5.856456 -17.634246 -0.986102 -0.172301 21.226775 7.838048 16.304292 4.322793 0.332793 -14.783132 -2.032865 -3.217157 2.120165 0.288832 -1.609420 0.000000 0.000000 0.000000 -6.392776 -14.669402 -0.944336 -8.807872 -9.692985 -12.961964 16.811826 -9.156900 -0.094437 -1.123451 -3.328431 8.112912 -1.667201 0.604530 0.930988 0.000000 0.000000 0.000000 -5.739845 -17.730240 -1.448636 9.724294 2.230304 0.044349 -4.615231 1.328671 -1.267791 0.938141 0.643138 0.195803 0.000000 0.000000 0.000000 -6.178173 3.702870 -1.537955 5.309378 3.450839 1.255348 1.274469 -7.027912 5.640323 0.000000 0.000000 0.000000 -6.185839 3.766194 -1.786398 2.126366 -11.990056 -3.531636 -2.089943 -2.699985 -0.013964 14.812703 7.292317 -72.267527 4.026316 -9.011197 0.351508 0.000000 0.000000 0.000000 -4.966688 3.853181 -1.758238 0.860086 2.905773 5.857450 -3.201695 -0.872205 -1.560440 0.823503 9.974369 78.832568 3.645260 21.965634 2.101337 0.000000 0.000000 0.000000 
-1.620572 91.429131 -2.356724 0.000000 0.000000 0.000000 -5.596587 -17.628071 -0.959868 -1.361590 21.346578 8.141163 18.013082 4.225780 0.331810 -15.266847 -2.481565 -2.419504 2.033280 0.217937 -1.526879 0.000000 0.000000 0.000000 -6.341691 -14.587681 -0.959227 -9.008736 -10.556104 -12.992041 16.374750 -8.496576 -0.193460 -1.812260 -3.043363 8.636522 -1.314362 0.711169 1.031381 0.000000 0.000000 0.000000 -5.508644 -18.016926 -1.494804 9.811656 2.165651 -0.060074 -4.630098 1.357390 -1.297367 1.008622 0.780460 0.253526 0.000000 0.000000 0.000000 -6.252523 3.718105 -1.566740 5.249963 3.436144 1.244613 1.198899 -7.056446 6.047718 0.000000 0.000000 0.000000 -6.176302 3.772312 -1.780376 2.049634 -11.708106 -3.783328 -1.950444 -2.864632 0.164301 14.342998 7.152714 -71.404505 4.282360 -8.910694 0.126520 0.000000 0.000000 0.000000 -4.937803 3.864212 -1.752027 0.765486 2.654593 6.369673 -3.456349 -0.801984 -1.608740 0.970300 10.793305 77.851698 4.294248 22.090766 2.401283 0.000000 0.000000 0.000000 
-1.321670 91.224602 -2.783550 0.000000 0.000000 0.000000 -5.377843 -17.879075 -0.866049 -2.074269 21.809752 8.106442 18.897119 4.250423 0.309056 -15.693364 -2.726027 -1.536014 1.952678 0.153700 -1.410761 0.000000 0.000000 0.000000 -6.223636 -14.751863 -0.889488 -9.527428 -11.192786 -13.101594 15.804235 -7.763784 -0.241067 -1.877444 -2.758757 8.923480 -1.351635 0.754674 1.155963 0.000000 0.000000 0.000000 -5.382020 -18.450974 -1.507766 10.087420 2.103068 -0.341716 -4.667241 1.417093 -1.274582 0.995699 0.882138 0.344570 0.000000 0.000000 0.000000 -6.277941 3.754616 -1.535888 5.098988 3.461908 1.353291 1.104430 -6.930827 6.388338 0.000000 0.000000 0.000000 -6.180922 3.806761 -1.721410 1.981382 -11.324871 -3.958227 -1.818629 -2.972948 0.359381 13.660795 6.973401 -70.694391 4.310398 -8.988909 -0.264256 0.000000 0.000000 0.000000 -4.926670 3.894199 -1.683553 0.659208 2.351600 6.888763 -3.668222 -0.716320 -1.623054 1.102351 11.265689 76.765589 4.985092 21.987771 2.780574 0.000000 0.000000 0.000000 
-0.983999 91.119011 -3.256924 0.000000 0.000000 0.000000 -5.237566 -18.580392 -0.742463 -2.203839 22.588458 7.763818 18.895531 4.375333 0.287191 -15.935528 -2.694893 -0.741535 1.872287 0.096169 -1.310428 0.000000 0.000000 0.000000 -6.141430 -15.354386 -0.786045 -10.529623 -11.542949 -13.283118 15.367666 -6.984884 -0.164211 -1.111989 -2.436854 8.868388 -1.523200 0.695672 1.278394 0.000000 0.000000 0.000000 -5.366061 -19.096439 -1.501498 10.568764 2.042787 -0.833204 -4.744376 1.495775 -1.184911 0.952532 0.885858 0.387695 0.000000 0.000000 0.000000 -6.252614 3.809044 -1.424357 4.845446 3.577934 1.615618 0.967844 -6.616454 6.590416 0.000000 0.000000 0.000000 -6.211113 3.866181 -1.598068 1.925044 -10.862012 -4.049954 -1.691992 -3.070684 0.470207 12.939539 6.893196 -70.143311 4.010286 -9.319205 -0.836610 0.000000 0.000000 0.000000 -4.941107 3.937692 -1.537642 0.544478 2.051486 7.370520 -3.854956 -0.620657 -1.644102 1.200344 11.373408 75.662438 5.669882 21.739666 3.218705 0.000000 0.000000 0.000000 
-0.626057 91.125015 -3.802841 0.000000 0.000000 0.000000 -5.232596 -19.805009 -0.637681 -1.795309 23.665057 7.216611 18.174584 4.562589 0.273425 -15.983389 -2.377716 -0.113438 1.818007 0.052025 -1.271966 0.000000 0.000000 0.000000 -6.214366 -16.455951 -0.719233 -12.024387 -11.544896 -13.500812 15.339519 -6.155308 0.076994 0.387864 -2.057568 8.419254 -1.505722 0.515245 1.305946 0.000000 0.000000 0.000000 -5.518350 -20.028053 -1.532835 11.272872 1.984694 -1.526996 -4.853704 1.579752 -1.011095 0.913726 0.788710 0.454334 0.000000 0.000000 0.000000 -6.197527 3.865362 -1.220886 4.477298 3.823377 1.996881 0.761448 -6.101110 6.616833 0.000000 0.000000 0.000000 -6.257889 3.929894 -1.405772 1.875339 -10.342829 -4.068995 -1.523323 -3.133881 0.502330 12.232818 6.934390 -69.668674 3.356857 -9.832146 -1.567721 0.000000 0.000000 0.000000 -4.979715 3.988935 -1.310449 0.426645 1.809700 7.780918 -4.015616 -0.524558 -1.694381 1.257771 11.248290 74.621408 6.325235 21.431368 3.663760 0.000000 0.000000 0.000000 
